<?xml version="1.0" encoding="utf-8"?>
<!-- Generator: Adobe Illustrator 21.0.2, SVG Export Plug-In . SVG Version: 6.00 Build 0)  -->
<svg version="1.1" id="レイヤー_1" xmlns="http://www.w3.org/2000/svg" xmlns:xlink="http://www.w3.org/1999/xlink" x="0px"
	 y="0px" viewBox="0 0 1000 400" style="enable-background:new 0 0 1000 400;" xml:space="preserve">
<style type="text/css">
	.st2{fill:#F44242;}
</style>
<path id="color_red.svg_2_" class="st2" d="M408.7,50.8c1,1.8,4.2,4.3,2.6,6.3c-1.5,1.4-3.2,2.6-5.1,3.6c-1.1,0.4-6.2-0.4-7.5-0.2
	c-4.4,0.5-6.1-0.3-10.6,0.2c-3.5,0.3-6.9,0.9-10.3,1.9c-4,1.4-6.3,7.7-10.8,8.7c-4.8,1.1-4.8,3-5.9,1.1s6.6-11.2,10.1-13.1
	s6.7-5,9.3-5.6c6.2-1.5,12.9-3.6,19-3.3L408.7,50.8z"/>
</svg>
