<?xml version="1.0" encoding="utf-8"?>
<!-- Generator: Adobe Illustrator 21.0.2, SVG Export Plug-In . SVG Version: 6.00 Build 0)  -->
<svg version="1.1" id="レイヤー_1" xmlns="http://www.w3.org/2000/svg" xmlns:xlink="http://www.w3.org/1999/xlink" x="0px"
	 y="0px" viewBox="0 0 1000 400" style="enable-background:new 0 0 1000 400;" xml:space="preserve">
<style type="text/css">
	.st3{fill:#FFFFFF;}
</style>
<path id="color_white.svg" class="st3" d="M451.3,43.8c0,0.3,0,0.5,0,0.8c-2.7,0.5-5.2,0.9-7.7,1.6c-3.5,1-6.8,2.2-10.3,3.3
	c-2.2,0.7-4.3,1.5-6.5,2c-1.3,0.3-2.7,0.5-4,0.6c0,0-1.2,3.7-0.3,3.3c-1.2,1.6-1.4,3.6-3.5,3.2c-0.6,0.5-1.1,0.9-1.8,1.3
	c-1.2,0.7-2.5,1.2-3.7,2c-1.2,0.8-2.3,1.7-3.4,2.6c-1.1,0.9-2.2,2-3.2,3c0.1,0.2,0.2,0.3,0.2,0.5c0.8-0.2,1.5-0.3,2.3-0.5
	c1.7-0.5,3.3-1.1,5-1.6c0.6,0,1.2,0,1.8,0.1c0.7,0,1.3-0.2,2-0.3c0.8-0.2,1.4-0.6,1.3,0.8c-0.1,0.8,0.9,1.3,1.8,0.8
	c1-0.4,2-1,2.9-1.8c1.5-1.1,3.1-2.1,4.8-2.9c4.2-2.3,8.3-4.7,12.5-7c1.5-0.8,3.2-1.3,4.7-2.2c1.7-1,3.3-2.2,4.8-3.4
	c1.3-1,3.1-1.3,3.8-3.1c0.4-0.4,0.8-0.6,1.3-0.8l-0.2-0.4c-0.5,0.2-1,0.5-1.5,0.8c-0.9,1.1-2.5,1.3-3.7,0.5c0.4-0.2,0.7-0.5,1.1-0.7
	c1.4-0.7,2.8-1.4,4.2-2.1 M399.1,64.8c-0.3-1.3-4.1-3.4-4.1-3.4c-5,1.7-6.4,3.9-4.9,6.4c1.8,3,6.4,1.5,7.6-0.5
	C398.2,66.6,399.3,66.2,399.1,64.8L399.1,64.8z M394.7,67.7c-1.4,0.7-2.2-1.5-2.2-1.5c-0.3-0.9,0.2-2,1.1-2.3c0,0,0.1,0,0.1,0
	c0.8-0.4,1.8,0,2.1,0.8c0,0.1,0,0.1,0.1,0.2C396,64.9,396.2,67,394.7,67.7L394.7,67.7z M511.9,152c0.6-1.1,2.8-11.1,5-13.2
	c1.5-1.7,2.7-3.6,3.4-5.7c0,0,8.7-7.9,11.1-10.4c1.9-2,4-3.8,6.2-5.5l-4.9,9.1l-6.6,6c0,0,15-7.1,17.6-6.6s8.9-1.3,8.9-1.3
	s-7.3,5.8-10.4,5.7s-13.1,4-14.4,6.2c-1.6,2.3-3.3,4.5-5.2,6.5c-3.3,3.6-8.2,13-8.2,13S510.6,154.3,511.9,152L511.9,152z"/>
</svg>
