<?xml version="1.0" encoding="utf-8"?>
<!-- Generator: Adobe Illustrator 21.0.2, SVG Export Plug-In . SVG Version: 6.00 Build 0)  -->
<svg version="1.1" id="レイヤー_1" xmlns="http://www.w3.org/2000/svg" xmlns:xlink="http://www.w3.org/1999/xlink" x="0px"
	 y="0px" viewBox="0 0 1000 400" style="enable-background:new 0 0 1000 400;" xml:space="preserve">
<style type="text/css">
	.st0{fill:none;stroke:#292929;}
</style>
<path id="line.svg_2_" class="st0" d="M1000,207.3c-151.3-55.3-244.5-8.7-301-8.4c-67.8-4-112.6-79.7-122.1-81.5
	c-5-40.3-6.9-73.6-7.5-68c-1.1,9.3,2.6,82.8,9.8,91.5c-2.2-1.6-1.3-5.8-6.4-7.8s6.4,11.3,6.4,13.9c-6.9-6.2-3.5-2,0,6
	s2.2,22.2,2.2,31.9s6.2,50.5,6.2,50.5l1.8,34.1c0,0,0,11.5,5.4,13.3s2.1,1.8-0.6,14.6c1.2,5.2,5.3,74.9,3.6,78.4
	c-1.6,3.1-8.9-59.8-11.5-57.9c-7.8,5.8-17.5,6.6-12,4.7c12-3.1,7.1-16.4,0-24.8c-0.4,6.6-25.7,34.6-33.2,13.7s15.1-22.2,9.8-23
	c-5.7,0-14.2,3.5-16.9,18.2c-5.3-18.2-34.1-29.2-42.6-32.3s-8.6,38.8-8.6,38.8s7,37.9,6,47.2s-4.8,27.1-4.8,30.1s1.7-0.8,1.7-0.8
	l1-4.7l2.3,1.5l-1.1,7.1c0,0,5.5-6.2,5-18.3c0.6-3.3,0.9-6.7,0.8-10.1l1.3-1.7c0,0-3-11.1-2.3-14.1c1,0,2.3,4,2.3,4v-8.8l3,3.8v-8.3
	c0,0-1.8-11.1-2.8-13.6c0.5-4.5,2.3-5.2,0.7-12.1c-0.3-5.7-4-24.4-6.8-25.9c0.7-3.7-5.3-17.9-7.2-24.8c0.5-3.7,0.3-14.5,0.3-14.5
	s5.8-15.3,5.3-30.7c8.9-3.7,13.9-31.1,13.9-31.1c0-3.1-7.7-37.9-9.9-41.1s6.2-24.8,6.5-27.9s-6-32.8-6.5-38.5s1.3-21.7,0-26.6
	c-0.8-2.9-2.3-5.5-4.4-7.5c0,0,1.8-11.1,0.4-11.5s-8.4-19-8.4-27.5s-10.6,4-7.5,23.9c4.9,19.9,1.8,34.6,3.1,36.8s0,6.7-0.4,12.4
	c1.8,3.1,2.7,31.4,6.2,41c2.3,6.1-0.2,14.4,1,15.3c-1,2.6-0.1,4.8-1.1,5.8c0.1,0.4,3,8.3,7.2,10.3c16.4,7.8,20.5-0.9,23.3-5.7
	c0.9-1.5,5.2-8.8,5.9-10.2c0.8-1.3,1.7-2.5,2.7-3.7c0.5-1.1,1.7-2.1,2-2.9s1.9-2.2,2-2c0.4,0.3,0.8,0.5,1.3,0.5
	c-0.1-0.4-0.3-0.9-0.6-1.2l0.9-0.6l1.3,0.6c0,0-0.1-1-0.2-1.4c0.3-0.1,0.6-0.2,0.8-0.5c0.7-1,1.8-0.9,2.6-1.1s2.9-4.4,5.3-8.1
	c0.3,5.2-4,8.3-4,9.4s-1.1,1.6-1.9,1.7s-2.9,2.2-4.7,2.9c-0.8,0.3-0.3,1.5-0.8,1.8c-0.3,0.2-1.7-0.6-1.7-0.3c0,0.2,1.2,1,0.7,1
	c-0.4,0-1.6,0-1.4,0.2c0.5,0.3,1.2,0.4,1.8,0.3c1-0.5,2.1-0.8,3.2-0.8c0.5,0,3-1.7,3.5-1.7s0.6,1.7,1,2.4s0.5-0.8,0.5-1.6
	c0-0.5-0.1-1-0.2-1.4l2.5-1l1.3,1.2l0.9-0.5l-1-1.4c0.6-0.2,1.1-0.3,1.7-0.4c0.6,0,0.8,1.7,0.8,1.7c0.3,0,0.6-0.3,0.7-0.6
	c0-0.1,0-0.2-0.1-0.3c-0.2-0.9-0.6-1.4-0.1-1.9c0.9-0.6,1.9-0.9,2.9-0.8c0.4-0.4,2.9-1,6.1-1.3s5.3,1.8,3.9,1.5
	c-2.7-1.3-6.6,0.2-7.7,0.8c0.5,0.7-0.8,3-1.1,3.1s0.4-1.2,0-1.8c-0.4-0.4-1-0.5-1.6-0.5c0,0,1.5,2.4,0,2.7s-3.6,0-4.2,0.2
	c-0.8,0.4-1.6,1-2.2,1.6c-0.3-0.9-0.9-1.6-1.8-2c0.4,0.7,0.8,1.5,1,2.3c-0.9,0.7-1.8,1.4-2.7,2l-1.2-2.4l-0.8,0.4
	c0,0,1.2,2.2,0.6,2.4c-1.7,1-3.1,2.3-4.1,3.9c-0.7,1.4,0.6,2.8,0,3.6s-1.8,4.8-1.8,4.8s2.5-2.9,2.5-2.2s0,2.4-0.6,2.4
	s-0.9,2.3-0.9,2.3c0.6-0.5,1.3-0.8,2.1-0.9c0.9,0-0.1,1.9-1.2,2.6s-0.3,1.5,0.4,1.3s1.9-0.4,1.6,0s-1.2,1.7-1,1.9s0.9-0.6,1.6-0.8
	c0.4-0.1,0.7,0.1,0.8,0.5c0,0.2,0,0.4-0.2,0.6c-0.4,0.4-0.8,0.8-1.1,1.3l1.6-0.6c0,0,1.6,1.6,1.4,3.1c0.3,1.5,3.7,5.4,3.7,6.8
	c0.1,1.9-6.5-6.9-8.1-8.8s-4.3-9-4.3-9v-5.6l-1.8,2.2c0,0-3.1,6.2-3.1,3.9s-5.7,14.3-6.7,15.3c-1.4,1.4-15.1,23.9-22.4,21.1
	c-6.6-2.6-11.1-8-6-25.8c1.4-5-1.7-9-4.5-14.8c1.2-6.6-5.5-18.6-7.3-20.6s-6.7-5.2-12.1-9.5c-3.7-5.3-10.9-5.5-12.3-7.1
	c-3-3.7-8.2-0.8-8.2-0.8s4.9,2.4,6.7,4.4c6.8-0.3,7.8,3.6,2.9,4c6,0.9,10.9,2.2,13.3,13.1s-2.4,13.9-5.8,13.3c0.2,3.1,0.2,3.8-0.7,6
	c1.6,3.1,1.1,12.6,1.1,12.6s-4.9,3.5-5.3,7.5c-7.5-1.8,2.4,12.6,2.4,12.6c-1.8,2.2-3.7,4.3-5.8,6.2c1.3,2.9,0.4,8.2,0.4,8.2
	c-1.1,1-2.4,1.8-3.8,2.4c2.9,8.9,2,9.7-0.9,11.5c0,4.4,5.8,12.8,5.8,12.8c10.2,7,23.4,50.4,23.4,50.4c-8,14.3-3,36.6-3.7,43.9
	c1,3.2,2.4,6.2,4.3,9l4.5,2.7c-1.2-3-1.9-6.1-2.3-9.3c-0.3-3.3,1.5-6.5,4.5-8c3.2,4,7,33.4,7,33.4l-2.7,2.5c0,0-0.2,3.8,0.1,8.3
	c1.1,2.8,0.8,12.6-0.1,17.3c0.3,4-0.8,21.9-0.8,21.9l-1.7-1.5c0,0-0.3-7.3-1.7-9.8c0.3-2.8-0.5-10.1-2.5-16.6
	c0.2-8.3-2.8-19.8-2.8-19.8l-3.8-4l-1.7-6v5.2l-2-3v-5.5l-2.3-1.3v-2.8c0,0-3.8-5.2-3.8-6.8s-2.5-17.4-2.5-21.1
	c-0.8-0.2-6.5-11.5-7.8-14.8c-1.1-0.1-2.1-0.5-3-1.2l-2.5-4.7c0.2,0.9,0.2,1.9,0.2,2.8c-2.5-1.3-4.8-5.3-6.7-10.5
	c-3-2.8-6.7-14.8-8.5-20.1c-4.4-2.7-13.3-36.3-15.9-42.5c0.7,0.9,5.3,7.1,7.8,8.9c0.7-3.1,0.7-12-2.2-16.2s-4-19.5-4-19.5l2.5,1.1
	c-1.9-11.1-12.7-16.8-12.7-31.9c0-9.4,3-15.5,5.3-16.8c1.4-0.8,2.5,1.9,2.5,1.9c1.8-1.1,0.5-5.7,1.8-4.9c2.1,1.4,3.6,5.5,5.3,2.9
	s5.5-9.1,6.2-12.8s-1.9-4.8-0.9-9.3c-2.7,0-3.3,6.4-5.8,5.3s-5.5-3.8-8.2-0.7s-7.8,5.8-7.8,5.8c-1.5-0.1-2.9-0.3-4.3-0.7
	c-1.2-0.5-3.9-6.9-6.5-6.6c-2.4,0.9-9.2-2.9-9.2-2.9l-4-8.2c0,0-16.1-2.9-17.1-11.1c-0.1-0.9-1.5-6.5-1-8.2c-0.3-2.7,0.4-6.3,0.4-7
	s2.3-5,3-6.1c0.1,1.4,0.2,3.7,1.5,1.4c0.7-1.5,1.5-3,2.4-4.4c-0.1,0.7,0.1,1.5,0.4,2.2c0,0,0.6-2.2,1.4-2.6c1.1-0.4,1.9-1.5,1.9-2.7
	c0.9-0.9,2.6-0.9,2.7-0.5c0.4-0.6,1.2-2.3,1.2-2.3l2.6-0.7c0,0-3.1-0.9-4.1,0.2s-0.8,1.5-3.7,2.2c-0.8,1.8-1.9,2.2-3.6,1.6
	c-0.9,2.3-3.8-0.3-1.6-3.3c1.1-1.9,8.9-9.5,15.8-9.6c3.9-2.1,10.2-3.3,15.3-2.8c5.5,0.2,15,0.5,20.7,5.3c4.7-1.7,38-12.3,41.7-12.6
	c1.4,0.4,0.8,2.5,0.8,2.5c-2,1.1-13.5,8-16,10.5c-3.2,1.9-18.9,8.5-23.2,12.1c-0.7-1.2-1.9-2.1-3.3-2.3c0,0-0.8,0-3.7-0.1
	c-2.7,1.2-5.9,2.2-6.8,2.1c1.2-1.6,4.4-5,6.1-5.5s7.8-2.6,8.5-4.2s0.4-2.4,1.3-3c-2,0.6-5.3,0.9-6.9,1.6c-1.5-1-4.3-2.9-4.4-2.2
	c0.6,1.1,0.9,3.2-0.2,3.2c-0.8,1.1-0.9,3.3-3.7,2.3c-2.3,0.3-4.6,0.4-5.3-0.8c-1.2,1.5-1.4,1.3-3.8,0.4c-1.8-0.6-3.6-0.8-5.5-0.7
	c0.2,0.7,0.9,1,2.6,1.5s3.6,2.1,3.4,3.8c-0.2,1.8-1.3,3.8-2.1,4c1.2-1.7,1.4-4.4-0.2-5.6c-1.6-1.2-4.2-1.8-5.7-0.3
	c-1.5,1.4-1.2,4.9-0.3,5.5c1,0.6,2.2,0.9,3.4,0.9c0.9-0.5,2.3-2,1.2-1.9s-2.9,0.5-3.4-1.5c0.5-2,1.8-2.1,2.4-2.1s2.4,0.5,2.6,1.6
	s-0.4,3.2-1.3,3.6c-0.8,1.2-0.5,3.1-1.7,4.3s-2.8,4-7.4,4.9s-13,1.1-7.5,2.6c-2.4,2.8-1.2,5-0.2,3.1c-0.9,3.6-0.3,4.7-0.3,4.7
	c0.6-0.1,1.3,0.2,1.6,0.7c0.4-1.4,1.1-3.1,1.1-3.1s-0.3,4.2,1.2,5.9c0.3-2.6-0.2-6,1-7.6c1-1.2,2.1-2.2,3.4-3.1c0,0-0.9,1.8,0.4,1.8
	s4.7-3.1,4.9-3.6c-2.3,3.3-3.3,6.2-3.1,7.1c0,0,10.3-7,12.7-7s5.3,1.3,5.3,3.8s-13.5,25.7-7.3,35c0,0-9.8,0.4-10,12.5
	c-2,19.1,7.1,44,7.8,46.2s3.2,8.5,3.2,10.3c0.7,0.5,2.5-0.2,3.5,1.5c0.5,0.8-1.1,6.6,2,14.6c-4.9,6.2-83.6-1.7-103.9-5.7
	C220.8,183.3,90,154.7,0,200"/>
</svg>
